<?xml version="1.0" standalone="no"?>
<!DOCTYPE svg PUBLIC "-//W3C//DTD SVG 20010904//EN"
 "http://www.w3.org/TR/2001/REC-SVG-20010904/DTD/svg10.dtd">
<svg version="1.0" xmlns="http://www.w3.org/2000/svg"
 width="80.000000pt" height="80.000000pt" viewBox="0 0 80.000000 80.000000"
 preserveAspectRatio="xMidYMid meet">
<metadata>
Created by potrace 1.11, written by Peter Selinger 2001-2013
</metadata>
<g transform="translate(0.000000,80.000000) scale(0.100000,-0.100000)"
fill="#000000" stroke="none">
<path d="M325 790 c-20 -4 -4 -6 47 -6 43 1 78 4 78 9 0 9 -84 7 -125 -3z"/>
<path d="M465 790 c4 -6 14 -10 24 -10 32 0 135 -58 183 -103 49 -47 83 -104
104 -177 l14 -45 -6 40 c-13 92 -88 191 -192 252 -47 28 -136 58 -127 43z"/>
<path d="M210 751 c-70 -37 -129 -100 -165 -175 -19 -40 -35 -79 -35 -87 0 -8
15 19 32 60 36 84 99 156 174 195 27 14 45 25 39 25 -5 0 -26 -8 -45 -18z"/>
<path d="M287 741 c-152 -50 -257 -205 -244 -361 13 -163 115 -287 267 -326
130 -33 257 2 344 96 172 184 123 465 -100 574 -75 37 -186 44 -267 17z m255
-145 c30 -1 30 -6 2 -70 l-13 -31 -1 28 c-1 71 -103 105 -157 51 -39 -39 -26
-76 52 -151 48 -46 65 -69 66 -90 2 -44 -1 -56 -24 -90 -37 -55 -128 -78 -215
-54 -24 7 -51 9 -62 6 -18 -6 -18 -4 2 47 23 62 31 73 24 35 -8 -46 29 -79 95
-85 47 -3 57 -1 82 22 21 19 27 34 27 65 0 34 -6 45 -51 88 -82 78 -100 134
-57 188 33 43 74 56 143 49 33 -3 72 -7 87 -8z m54 -151 c-4 -14 -11 -25 -16
-25 -15 0 -12 48 3 53 18 6 20 1 13 -28z m-46 7 c0 -5 6 -16 13 -26 13 -18 15
-18 41 -1 29 19 42 15 32 -11 -4 -10 -13 -14 -26 -11 -26 7 -26 -10 1 -18 11
-4 18 -12 16 -18 -7 -22 -26 -17 -43 12 l-18 31 -24 -22 c-19 -19 -25 -20 -32
-8 -12 19 -2 33 21 27 10 -3 21 -2 24 3 3 4 -4 10 -15 13 -23 6 -27 37 -5 37
8 0 15 -4 15 -8z m25 -91 c3 -16 -1 -21 -16 -21 -21 0 -25 20 -7 38 14 14 17
12 23 -17z"/>
<path d="M1 410 c-1 -33 2 -60 6 -60 4 0 8 27 8 60 0 78 -11 78 -14 0z"/>
<path d="M792 405 c-6 -156 -93 -293 -226 -356 -34 -16 -55 -29 -48 -29 24 0
107 48 149 86 84 76 141 211 130 309 -3 38 -4 38 -5 -10z"/>
<path d="M11 320 c-1 -32 47 -135 85 -179 38 -46 136 -108 197 -126 28 -8 52
-13 55 -11 2 3 -21 12 -52 21 -64 19 -147 71 -190 118 -34 39 -73 114 -85 164
-7 29 -9 32 -10 13z"/>
<path d="M478 13 c7 -3 16 -2 19 1 4 3 -2 6 -13 5 -11 0 -14 -3 -6 -6z"/>
<path d="M383 3 c15 -2 39 -2 55 0 15 2 2 4 -28 4 -30 0 -43 -2 -27 -4z"/>
</g>
</svg>
